<svg width="24" height="24" viewBox="0 0 24 24" fill="none" xmlns="http://www.w3.org/2000/svg">
<path fill-rule="evenodd" clip-rule="evenodd" d="M7.08911 3.00047C8.06987 3.01364 8.76878 3.74855 9.65295 4.67838C9.87158 4.90755 10.1078 5.15778 10.3721 5.42119C11.6531 6.70311 11.2887 7.74884 10.9946 8.58823C10.675 9.50401 10.3984 10.2942 12.0543 11.9502C13.7103 13.6061 14.4996 13.3296 15.4146 13.0073C16.2548 12.7141 17.2979 12.3471 18.5816 13.629C18.8424 13.8897 19.0882 14.1233 19.3165 14.3402C20.2498 15.2287 20.9874 15.9303 20.9998 16.9137C21.0093 17.7513 20.5001 18.6065 19.2427 19.8638L18.6861 19.4863L19.1576 19.9455C18.8792 20.2308 18.1391 20.9912 16.6894 21H16.6631C14.4751 21 11.6224 19.258 8.18401 15.8205C4.73161 12.369 2.98698 9.50752 3.00007 7.31509C3.00805 5.86635 3.76754 5.12442 4.0529 4.84608L4.07726 4.81948L4.13631 4.76004C5.39628 3.50007 6.26201 2.98204 7.08911 3.00047ZM7.07243 4.31751H7.06541C6.67112 4.31751 6.07233 4.71262 5.2372 5.52383L5.06951 5.68851L5.07141 5.68811C5.07141 5.68811 5.05708 5.70455 5.03266 5.72946L4.97395 5.78821C4.76147 5.99454 4.32158 6.4239 4.31714 7.32212C4.31016 8.57857 5.13638 10.9115 9.11472 14.8889C13.0737 18.8471 15.4031 19.683 16.6631 19.683H16.6815C17.5798 19.6777 18.0082 19.2378 18.2146 19.0262C18.2769 18.9621 18.3278 18.9138 18.3638 18.8848C19.2392 18.0042 19.687 17.35 19.6827 16.9295C19.6774 16.501 19.1444 15.9953 18.4077 15.2937C18.1733 15.0716 17.9187 14.8284 17.65 14.5597C16.9529 13.8652 16.6095 13.9837 15.8501 14.2506C14.8008 14.6185 13.3635 15.1225 11.1236 12.8809C8.88292 10.6411 9.38515 9.20373 9.75129 8.15361C10.0164 7.39499 10.1376 7.04993 9.44134 6.35278C9.16916 6.08059 8.92419 5.82245 8.69853 5.58538C8.00138 4.85311 7.49827 4.32366 7.07243 4.31751ZM14.6306 6.12405C16.4577 6.47877 17.8687 7.88888 18.2243 9.71693C18.2937 10.0752 18.061 10.4202 17.7045 10.4896C17.6615 10.4975 17.6194 10.5019 17.5772 10.5019C17.2682 10.5019 16.9933 10.2841 16.9319 9.9698C16.679 8.67032 15.6772 7.6685 14.3794 7.4165C14.0221 7.34714 13.7894 7.00208 13.8588 6.64472C13.9281 6.28736 14.2794 6.05381 14.6306 6.12405ZM14.578 3.00548C18.1586 3.40322 20.9393 6.18042 21.3405 9.76013C21.3809 10.1219 21.121 10.4476 20.7601 10.488C20.7356 10.4906 20.7101 10.4924 20.6855 10.4924C20.3545 10.4924 20.07 10.2439 20.0323 9.90764C19.6995 6.94342 17.3973 4.643 14.4322 4.31374C14.0713 4.27335 13.8106 3.94848 13.851 3.58673C13.8905 3.22586 14.2127 2.95982 14.578 3.00548Z" fill="white"/>
</svg>
