<svg width="132" height="43" viewBox="0 0 132 43" fill="none" xmlns="http://www.w3.org/2000/svg">
<g clip-path="url(#clip0_110_2123)">
<path fill-rule="evenodd" clip-rule="evenodd" d="M100.73 8.52002V10.43C100.73 10.98 100.91 11.44 101.28 11.81C101.65 12.16 102.1 12.34 102.66 12.34H104.95C105.04 12.35 105.13 12.36 105.23 12.36H111.7V33.81C111.7 34.34 111.88 34.78 112.25 35.15C112.63 35.5 113.08 35.68 113.61 35.68H117.44C117.97 35.68 118.41 35.5 118.78 35.15C119.16 34.78 119.35 34.34 119.35 33.81V12.35H128.38C129.31 12.35 130.14 11.79 130.49 10.92L132.22 6.61002H128.73C128.62 6.59002 128.51 6.59003 128.4 6.59003H102.67C102.12 6.59003 101.66 6.77001 101.29 7.14001C100.91 7.51001 100.73 7.97002 100.73 8.52002ZM76.13 33.81V8.56C76.13 8.01 76.32 7.54 76.7 7.16C77.08 6.78 77.53 6.59003 78.06 6.59003H81.87C82.4 6.59003 82.84 6.78 83.21 7.16C83.59 7.54 83.78 8 83.78 8.56V29.93H101.44C101.48 29.93 101.52 29.93 101.56 29.93H105.1L103.37 34.24C103.27 34.49 103.13 34.71 102.96 34.9C102.9 34.97 102.84 35.05 102.77 35.11C102.41 35.48 101.96 35.66 101.43 35.66H101.34C101.31 35.66 101.29 35.66 101.26 35.66H78.11C78.09 35.66 78.06 35.66 78.04 35.66C77.52 35.66 77.07 35.48 76.69 35.13C76.32 34.78 76.13 34.34 76.13 33.81ZM5 12.36H22.47L7.05 27.66C5.95 28.76 5.31999 29.87 5.17999 30.99C5.06999 31.22 5.00999 31.48 5.00999 31.76V33.84C5.00999 34.85 5.83 35.67 6.84 35.67H29.99C30.92 35.67 31.75 35.11 32.1 34.24L33.83 29.93H30.74C30.7 29.93 30.65 29.93 30.61 29.93H14.45L30.41 14.4L31.3 13.49C31.5 13.27 31.72 12.91 31.95 12.39C32.19 11.88 32.31 11.34 32.31 10.79V8.52002C32.31 7.97002 32.12 7.51001 31.74 7.14001C31.38 6.77001 30.93 6.59003 30.4 6.59003L9.12 6.61002C9.04 6.61002 9.1 6.61003 9.25 6.62003H8.75C7.8 6.62003 6.96 7.21003 6.63 8.09003L5 12.36ZM63.01 5.64001L46.73 1.80002L39.1 0V7.84003V26.79C39.1 31.7 43.08 35.68 47.99 35.68H60.97C65.88 35.68 69.86 31.7 69.86 26.79V21.93V14.29C69.86 10.17 67.03 6.58001 63.01 5.64001ZM47.99 28.05H60.97C61.67 28.05 62.23 27.48 62.23 26.79V21.93V14.29C62.23 13.7 61.83 13.19 61.26 13.06L46.73 9.64001V26.79C46.73 27.49 47.3 28.05 47.99 28.05Z" fill="white"/>
<mask id="mask0_110_2123" style="mask-type:luminance" maskUnits="userSpaceOnUse" x="39" y="0" width="31" height="36">
<path d="M39.0996 26.79C39.0996 31.7 43.0796 35.68 47.9896 35.68H60.9696C65.8796 35.68 69.8596 31.7 69.8596 26.79V21.93V14.29C69.8596 10.16 67.0196 6.58001 63.0096 5.64001L39.0996 0.0100098V26.79Z" fill="white"/>
</mask>
<g mask="url(#mask0_110_2123)">
<path d="M47.9897 43.31C38.8697 43.31 31.4697 35.91 31.4697 26.79H46.7297C46.7297 27.49 47.2997 28.05 47.9897 28.05V43.31ZM60.9697 28.05C61.6697 28.05 62.2297 27.48 62.2297 26.79H77.4897C77.4897 35.91 70.0897 43.31 60.9697 43.31V28.05ZM64.7597 -1.79001C72.2197 -0.0300083 77.4897 6.62998 77.4897 14.29H62.2297C62.2297 13.7 61.8297 13.19 61.2597 13.06L64.7597 -1.79001ZM62.2397 21.93V14.29H77.4997V21.93H62.2397ZM62.2397 26.79V21.93H77.4997V26.79H62.2397ZM46.7297 -3.05176e-05V26.79H31.4697V-3.05176e-05H46.7297ZM61.2597 13.06L37.3497 7.42999L40.8497 -7.42001L64.7597 -1.79001L61.2597 13.06ZM47.9897 28.05H60.9697V43.31H47.9897V28.05ZM39.0997 -3.05176e-05H31.4697V-9.63L40.8497 -7.42001L39.0997 -3.05176e-05Z" fill="white"/>
</g>
</g>
<defs>
<clipPath id="clip0_110_2123">
<rect width="132" height="43" fill="white"/>
</clipPath>
</defs>
</svg>
