<svg width="31" height="36" viewBox="0 0 31 36" fill="none" xmlns="http://www.w3.org/2000/svg">
<mask id="mask0_139_3235" style="mask-type:luminance" maskUnits="userSpaceOnUse" x="0" y="0" width="31" height="36">
<path d="M0.0996094 26.79C0.0996094 31.7 4.07959 35.68 8.98959 35.68H21.9696C26.8796 35.68 30.8596 31.7 30.8596 26.79V21.93V14.29C30.8596 10.16 28.0196 6.58001 24.0096 5.64001L0.0996094 0.0100098V26.79Z" fill="white"/>
</mask>
<g mask="url(#mask0_139_3235)">
<path d="M8.98972 43.31C-0.130284 43.31 -7.53027 35.91 -7.53027 26.79H7.72974C7.72974 27.49 8.29972 28.05 8.98972 28.05V43.31ZM21.9697 28.05C22.6697 28.05 23.2297 27.48 23.2297 26.79H38.4897C38.4897 35.91 31.0897 43.31 21.9697 43.31V28.05ZM25.7597 -1.79001C33.2197 -0.0300083 38.4897 6.62998 38.4897 14.29H23.2297C23.2297 13.7 22.8297 13.19 22.2597 13.06L25.7597 -1.79001ZM23.2397 21.93V14.29H38.4997V21.93H23.2397ZM23.2397 26.79V21.93H38.4997V26.79H23.2397ZM7.72974 -3.05176e-05V26.79H-7.53027V-3.05176e-05H7.72974ZM22.2597 13.06L-1.65027 7.42999L1.84973 -7.42001L25.7597 -1.79001L22.2597 13.06ZM8.98972 28.05H21.9697V43.31H8.98972V28.05ZM0.0997314 -3.05176e-05H-7.53027V-9.63L1.84973 -7.42001L0.0997314 -3.05176e-05Z" fill="#FF6D04"/>
</g>
</svg>
