<svg width="63" height="67" viewBox="0 0 63 67" fill="none" xmlns="http://www.w3.org/2000/svg">
<path d="M55.3379 17.6585C59.1135 22.6925 61.4084 28.9851 61.4084 35.7958C61.4084 52.4525 47.8609 66 31.2042 66C14.5475 66 1 52.4525 1 35.7958C1 28.9851 3.29492 22.6925 7.07045 17.5844" stroke="#FF6D04" stroke-width="1.9843" stroke-miterlimit="10"/>
<path fill-rule="evenodd" clip-rule="evenodd" d="M1.96289 15.0674L8.1814 17.8065C8.1814 17.8065 10.4763 18.1767 12.253 17.5844C14.0298 16.9922 16.4727 16.4 16.4727 16.4C16.4727 16.4 18.3235 17.8806 20.1742 17.8806C22.025 17.8806 24.616 16.548 24.616 16.548L27.4292 15.5856H30.9086H30.9826H34.462L37.2752 16.548C37.2752 16.548 39.7922 17.8806 41.7169 17.8806C43.5677 17.8806 45.4184 16.4 45.4184 16.4C45.4184 16.4 47.8614 16.9922 49.6381 17.5844C51.4149 18.1767 53.7098 17.8065 53.7098 17.8065L59.9283 15.0674C59.9283 15.0674 56.8931 11.7361 54.5241 9.58922C52.2292 7.36832 47.5653 5.44355 47.5653 5.44355H45.2704L45.0483 5.36952C44.9743 4.70325 44.4561 4.25907 43.7898 4.25907C43.4196 4.25907 43.0495 4.48116 42.8274 4.77728L42.6793 4.70325C42.6793 4.70325 38.9778 5.36952 37.8674 5.44355C36.7569 5.59161 36.3868 5.14743 36.3868 5.14743C36.3868 5.14743 33.6477 2.70444 32.6853 1.74205C31.871 0.927722 31.0566 1.00175 30.9086 1.00175C30.7605 1.00175 30.0202 0.927722 29.1319 1.74205C28.1695 2.70444 25.4304 5.14743 25.4304 5.14743C25.4304 5.14743 25.0602 5.59161 23.9498 5.44355C22.8393 5.29549 19.1378 4.70325 19.1378 4.70325L18.9898 4.77728C18.7677 4.48116 18.3975 4.25907 18.0274 4.25907C17.3611 4.25907 16.8429 4.77728 16.7689 5.36952L16.5468 5.44355H14.2518C14.2518 5.44355 9.662 7.36832 7.29304 9.58922C4.99811 11.7361 1.96289 15.0674 1.96289 15.0674Z" fill="white" stroke="#FF6D04" stroke-width="1.9843" stroke-miterlimit="10"/>
<path fill-rule="evenodd" clip-rule="evenodd" d="M20.174 14.9934C22.2468 14.9934 23.9495 13.2907 23.9495 11.2179C23.9495 9.14504 22.2468 7.44235 20.174 7.44235C18.1011 7.44235 16.3984 9.14504 16.3984 11.2179C16.3984 13.2907 18.1011 14.9934 20.174 14.9934Z" fill="white" stroke="#FF6D04" stroke-width="1.9843" stroke-miterlimit="10"/>
<path fill-rule="evenodd" clip-rule="evenodd" d="M30.8344 13.1427C32.9072 13.1427 34.6099 11.44 34.6099 9.36713C34.6099 7.29429 32.9072 5.51757 30.8344 5.51757C28.7616 5.51757 27.0589 7.22026 27.0589 9.36713C26.9848 11.44 28.7616 13.1427 30.8344 13.1427Z" fill="white" stroke="#FF6D04" stroke-width="1.9843" stroke-miterlimit="10"/>
<path fill-rule="evenodd" clip-rule="evenodd" d="M42.754 14.9934C44.8269 14.9934 46.5296 13.2907 46.5296 11.2179C46.5296 9.14504 44.8269 7.44235 42.754 7.44235C40.6812 7.44235 38.9785 9.14504 38.9785 11.2179C38.9785 13.2907 40.6812 14.9934 42.754 14.9934Z" fill="white" stroke="#FF6D04" stroke-width="1.9843" stroke-miterlimit="10"/>
<path d="M31.2034 54.1552C41.2714 54.1552 49.4887 45.9379 49.4887 35.8698C49.4887 25.8018 41.2714 17.5844 31.2034 17.5844C21.1353 17.5844 12.918 25.8018 12.918 35.8698C12.918 45.9379 21.1353 54.1552 31.2034 54.1552Z" stroke="#FF6D04" stroke-width="0.5669" stroke-miterlimit="10"/>
<path d="M31.204 48.5289C38.1628 48.5289 43.8631 42.8286 43.8631 35.8698C43.8631 28.911 38.1628 23.2107 31.204 23.2107C24.2452 23.2107 18.5449 28.911 18.5449 35.8698C18.5449 42.8286 24.1712 48.5289 31.204 48.5289Z" stroke="#FF6D04" stroke-width="0.5669" stroke-miterlimit="10"/>
<path d="M31.205 41.274C34.1662 41.274 36.6091 38.831 36.6091 35.8698C36.6091 32.9086 34.1662 30.4657 31.205 30.4657C28.2438 30.4657 25.8008 32.9086 25.8008 35.8698C25.8008 38.831 28.1697 41.274 31.205 41.274Z" stroke="#FF6D04" stroke-width="0.5669" stroke-miterlimit="10"/>
<path d="M31.2045 29.1331C32.1668 29.1331 32.9812 28.3928 32.9812 27.3564C32.9812 26.394 32.1668 25.5797 31.2045 25.5797C30.2421 25.5797 29.4277 26.32 29.4277 27.3564C29.4277 28.3188 30.2421 29.1331 31.2045 29.1331Z" stroke="#FF6D04" stroke-width="0.5669" stroke-miterlimit="10"/>
<path d="M22.3203 30.6877C22.8385 29.8734 23.8749 29.5773 24.6893 30.0215C25.5036 30.5397 25.7997 31.5761 25.3555 32.4645C24.8373 33.2788 23.8009 33.5749 22.9125 33.1307C22.0982 32.6125 21.8021 31.5761 22.3203 30.6877Z" stroke="#FF6D04" stroke-width="0.5669" stroke-miterlimit="10"/>
<path d="M22.3194 40.9779C21.8012 40.0895 22.0974 39.0531 22.9857 38.5349C23.8 38.0167 24.9105 38.3128 25.4287 39.2012C25.9469 40.0155 25.6508 41.126 24.7624 41.5701C23.8741 42.0883 22.7636 41.7922 22.3194 40.9779Z" stroke="#FF6D04" stroke-width="0.5669" stroke-miterlimit="10"/>
<path d="M31.2045 46.086C30.2421 46.086 29.4277 45.2716 29.4277 44.3092C29.4277 43.3469 30.2421 42.5325 31.2045 42.5325C32.1668 42.5325 32.9812 43.3469 32.9812 44.3092C32.9071 45.2716 32.1668 46.086 31.2045 46.086Z" stroke="#FF6D04" stroke-width="0.5669" stroke-miterlimit="10"/>
<path d="M40.0874 40.9779C39.5692 41.7922 38.5328 42.0883 37.7184 41.6442C36.8301 41.126 36.608 40.0895 37.0522 39.2752C37.5704 38.4609 38.6068 38.1648 39.4211 38.6089C40.2355 39.0531 40.5316 40.0895 40.0874 40.9779Z" stroke="#FF6D04" stroke-width="0.5669" stroke-miterlimit="10"/>
<path d="M40.0891 30.6877C40.6073 31.5021 40.3111 32.6125 39.4228 33.0567C38.6084 33.5749 37.498 33.2788 37.0538 32.3904C36.5356 31.5761 36.8317 30.4657 37.7201 29.9474C38.5344 29.5773 39.5708 29.8734 40.0891 30.6877Z" stroke="#FF6D04" stroke-width="0.5669" stroke-miterlimit="10"/>
</svg>
