<svg width="68" height="67" viewBox="0 0 68 67" fill="none" xmlns="http://www.w3.org/2000/svg">
<path fill-rule="evenodd" clip-rule="evenodd" d="M29.5133 19.056L19.3643 18.0787L11.0195 26.1979C14.0267 28.0022 20.8679 29.2802 22.3714 31.7611C23.5743 33.8661 21.2438 43.5641 20.8679 46.496C23.9502 46.1201 33.2722 43.8648 35.4524 44.8421C38.3844 46.1953 39.061 53.6379 41.2411 56.194L48.9845 48.5258C49.7363 47.5485 48.6086 41.3087 48.4582 39.6548C48.2327 37.3243 48.383 37.4746 49.8866 36.347L55.2243 31.2348C58.6824 27.8518 61.6144 25.2958 63.7946 19.1312C65.2229 15.0715 66.952 5.5991 65.7492 1.38913C59.4342 -0.114432 47.8568 3.04305 43.3461 5.67428C40.4142 7.40338 38.1588 9.80908 36.129 11.8389C33.8737 14.3198 31.8439 16.3496 29.5133 19.056Z" fill="white" stroke="#FF6D04" stroke-width="1.9843" stroke-miterlimit="10"/>
<path d="M49.5854 8.45587C39.5115 10.9367 43.1952 25.6717 52.9684 23.5667C63.1174 21.3865 59.5089 5.97499 49.5854 8.45587Z" stroke="#FF6D04" stroke-width="0.5669" stroke-miterlimit="10"/>
<path d="M41.4662 41.4591C41.1655 38.3768 36.6548 32.8136 36.0534 32.2122C35.0009 31.0845 29.4377 26.3483 26.2051 25.822" stroke="#FF6D04" stroke-width="0.5669" stroke-miterlimit="10"/>
<path fill-rule="evenodd" clip-rule="evenodd" d="M14.5529 50.1797C13.0494 50.9315 5.53156 58.4493 5.23085 59.3515C4.55425 61.1557 6.28334 62.5841 7.86208 61.682C8.23797 61.4564 16.6579 53.3372 17.0338 52.4351C17.6352 50.9315 16.1317 49.4279 14.5529 50.1797Z" fill="white" stroke="#FF6D04" stroke-width="1.9843" stroke-miterlimit="10"/>
<path fill-rule="evenodd" clip-rule="evenodd" d="M10.1171 35.3696C8.91421 36.1966 1.47158 43.4889 1.17086 44.2407C0.419084 46.0449 2.29854 47.5485 3.87728 46.6464C4.62906 46.2705 8.91421 41.6846 9.89153 40.7073C10.4178 40.181 12.5228 38.2264 12.7483 37.7002C13.7256 35.8959 11.9213 34.0916 10.1171 35.3696Z" fill="white" stroke="#FF6D04" stroke-width="1.9843" stroke-miterlimit="10"/>
<path fill-rule="evenodd" clip-rule="evenodd" d="M20.6435 65.7416C23.2747 66.7189 24.252 64.8395 27.4847 61.5316C28.5372 60.4791 29.4393 59.577 30.567 58.4493C31.3939 57.6975 33.4989 56.1188 31.5443 54.4649C30.0407 53.1868 28.6124 54.8408 27.9358 55.5925L21.8463 61.682C20.5683 63.0352 19.7413 63.4111 20.6435 65.7416Z" fill="white" stroke="#FF6D04" stroke-width="1.9843" stroke-miterlimit="10"/>
<path d="M50.3392 12.29C44.9263 14.0942 48.0086 21.161 52.5945 19.6574C57.3307 18.0787 54.925 10.7112 50.3392 12.29Z" stroke="#FF6D04" stroke-width="0.5669" stroke-miterlimit="10"/>
</svg>
