<svg width="77" height="67" viewBox="0 0 77 67" fill="none" xmlns="http://www.w3.org/2000/svg">
<path fill-rule="evenodd" clip-rule="evenodd" d="M71.88 9.81984C62.0536 4.187 50.6377 1 38.5715 1C25.9995 1 14.15 4.48347 4.0346 10.561V13.5257C4.0346 13.5257 3.96235 14.2668 2.87855 14.2668C1.79476 14.2668 1 14.2668 1 14.2668V19.7514H5.19065L5.55192 25.9772L15.306 32.4253L21.0863 32.6477C21.0863 32.6477 29.9734 30.4242 36.9096 30.0536C37.4877 29.9795 38.0657 29.9795 38.5715 29.9795C45.6522 29.9795 54.3226 32.203 54.3226 32.203H61.2588L70.7239 25.5325V19.3067H75.2036V13.5257H72.0967L71.88 9.81984Z" fill="white" stroke="#FF6D04" stroke-width="1.9843" stroke-miterlimit="10" stroke-linejoin="round"/>
<path d="M38.3533 7.67047L37.1973 30.0536" stroke="#FF6D04" stroke-width="0.5669" stroke-miterlimit="10"/>
<path d="M40.1621 7.67047L41.2459 30.0536" stroke="#FF6D04" stroke-width="0.5669" stroke-miterlimit="10"/>
<path d="M17.6177 32.4994L11.9097 27.3854C9.59763 25.3101 9.45312 22.3455 9.45312 22.3455V10.4128C18.268 6.11402 28.1666 3.7423 38.6432 3.7423C48.7586 3.7423 58.3683 5.96579 67.0386 10.0422V21.5302C67.0386 21.5302 67.0386 24.1984 64.582 26.8666C62.1977 29.5348 58.5128 31.8324 58.5128 31.8324" stroke="#FF6D04" stroke-width="0.5669" stroke-miterlimit="10"/>
<path fill-rule="evenodd" clip-rule="evenodd" d="M71.88 43.0636C62.0536 37.4308 50.6377 34.2438 38.5715 34.2438C25.9995 34.2438 14.15 37.7273 4.0346 43.8048V46.8436C4.0346 46.8436 3.96235 47.5106 2.87856 47.5106C1.79476 47.5106 1 47.5106 1 47.5106V52.9952H5.19065L5.55192 59.2951L15.306 65.7432L21.014 65.9656C21.014 65.9656 29.9011 63.668 36.8374 63.3715C37.4154 63.3715 37.9934 63.2974 38.4992 63.2974C45.5799 63.2974 54.2503 65.5209 54.2503 65.5209H61.1866L70.6517 58.8504V52.5505H75.1314V46.7695H72.0245L71.88 43.0636Z" fill="white" stroke="#FF6D04" stroke-width="1.9843" stroke-miterlimit="10" stroke-linejoin="round"/>
<path d="M38.3533 41.0969L37.1973 63.48" stroke="#FF6D04" stroke-width="0.5669" stroke-miterlimit="10"/>
<path d="M40.1621 41.0969L41.2459 63.48" stroke="#FF6D04" stroke-width="0.5669" stroke-miterlimit="10"/>
<path d="M17.6177 66L11.9097 60.8119C9.59763 58.7366 9.45312 55.7719 9.45312 55.7719V43.9133C18.268 39.6146 28.1666 37.2429 38.6432 37.2429C48.7586 37.2429 58.3683 39.4664 67.0386 43.5428V55.0308C67.0386 55.0308 67.0386 57.699 64.582 60.3672C62.1977 63.0353 58.5128 65.4071 58.5128 65.4071" stroke="#FF6D04" stroke-width="0.5669" stroke-miterlimit="10"/>
</svg>
