<svg width="88" height="88" viewBox="0 0 88 88" fill="none" xmlns="http://www.w3.org/2000/svg">
<path d="M20 31.1C20 37 21.4 42.6 23.4 46.7C23.7 47.2 23.8 47.7 24.1 48.2C24.9 49.7 25.7 51.1 26.7 52.5C27.7 53.9 28.3 54.5 29.3 55.7L33.3 59.6C33.7 59.9 34.1 60.3 34.6 60.6C37.7 62.9 38.4 63.3 41.7 64.9C45.8 66.9 51.4 68.3 57.3 68.3C62.9 68.3 68.2 62.9 68.2 57.5C68.2 55.1 68.2 52.5 66.8 51L66.5 50.7C65.6 49.9 64.7 49.7 63.4 49.5L54.7 48.1C53 47.8 51.9 47.8 50.4 48.8C49.9 49.1 48.7 50.9 48.5 51.5C47 50.7 46.4 50.6 44.7 49.4C44.1 49 43.7 48.6 43.1 48.2C42.8 47.9 42.6 47.8 42.3 47.5C42 47.2 41.8 47.1 41.5 46.8L40.2 45.2C39.2 44.1 38.6 42.9 37.8 41.7C37.6 41.4 37.5 41.1 37.3 40.8C37.2 40.5 36.9 40 36.8 39.7C37 39.4 38.3 39.1 38.5 38.8C40.4 37.1 40 34.8 39.6 32.6L38.4 25.2C38.1 23.1 37.9 22.5 36.7 21.3C35.5 20.1 32.7 20 30.8 20C29.1 20 27.6 20.5 26.5 21.1C25.8 21.4 25.3 21.7 24.8 22.1C24.3 22.5 23.8 22.9 23.3 23.3L22.1 24.7C20.9 26.6 20 28.9 20 31.1Z" stroke="#FF6D04" stroke-width="2.0126" stroke-miterlimit="10" stroke-linecap="round" stroke-linejoin="round"/>
<path d="M47.6 25.5C47.9 25.5 48.2 25.5 48.5 25.5C56.9 25.5 63.7 32.3 63.7 40.7" stroke="#FF6D04" stroke-width="0.5669" stroke-miterlimit="10"/>
<path d="M48.4 32.1C53.1 32.1 57 35.9 57 40.7" stroke="#FF6D04" stroke-width="0.5669" stroke-miterlimit="10"/>
<circle cx="44" cy="44" r="43" stroke="#FF6D04" stroke-width="2.0126" stroke-miterlimit="10" stroke-linecap="round" stroke-linejoin="round"/>
</svg>
