<svg width="88" height="88" viewBox="0 0 88 88" fill="none" xmlns="http://www.w3.org/2000/svg">
<path fill-rule="evenodd" clip-rule="evenodd" d="M44.5 67.0005L48.2 62.4005C51.3 58.9005 54.5 55.4005 57.4 51.8005C58.3 50.7005 59 49.8005 59.8 48.5005C71.1 31.5005 58.7 16.0005 44.5 16.0005C30.5 15.9005 18 31.5005 29 48.3005C31.7 52.4005 37.4 59.0005 40.5 62.2005C41.9 63.5005 43.6 66.2005 44.5 67.0005Z" stroke="#FF6D04" stroke-width="2.0126" stroke-miterlimit="10" stroke-linecap="round" stroke-linejoin="round"/>
<path d="M44.5 43.2004C49.1 43.2004 52.9 39.4004 52.9 34.8004C52.9 30.2004 49.1 26.4004 44.5 26.4004C39.9 26.4004 36.1 30.2004 36.1 34.8004C36.1 39.4004 39.8 43.2004 44.5 43.2004Z" stroke="#FF6D04" stroke-width="0.5669" stroke-miterlimit="10"/>
<path d="M40.2 61.9004C28.7 62.3004 20 64.3004 20 66.8004C20 69.5004 31 71.8004 44.5 71.8004C58 71.8004 69 69.6004 69 66.8004C69 64.4004 60.1 62.4004 48.8 62.0004" stroke="#FF6D04" stroke-width="2.0126" stroke-miterlimit="10" stroke-linecap="round" stroke-linejoin="round"/>
<circle cx="44" cy="44" r="43" stroke="#FF6D04" stroke-width="2.0126" stroke-miterlimit="10" stroke-linecap="round" stroke-linejoin="round"/>
</svg>
