<svg width="85" height="74" viewBox="0 0 85 74" fill="none" xmlns="http://www.w3.org/2000/svg">
<path d="M24.6699 11.45H17.3799V40.31H24.6699V11.45Z" fill="white" stroke="#FF6D04" stroke-width="0.5669" stroke-miterlimit="10"/>
<path fill-rule="evenodd" clip-rule="evenodd" d="M18.1396 60.4901H23.9196C26.2996 60.4901 28.2296 58.5601 28.2296 56.1801V42.4301C28.2296 41.4401 27.4096 40.6201 26.4196 40.6201H15.6196C14.6296 40.6201 13.8096 41.4401 13.8096 42.4301V56.1801C13.7996 58.5601 15.7596 60.4901 18.1396 60.4901Z" fill="white" stroke="#FF6D04" stroke-width="2.0126" stroke-miterlimit="10"/>
<path fill-rule="evenodd" clip-rule="evenodd" d="M15.5596 33.7L25.4496 35.94C26.6996 36.22 27.9396 35.43 28.2296 34.21C28.5096 32.96 27.7196 31.72 26.4696 31.43L16.5796 29.19C15.3296 28.91 14.0896 29.67 13.7996 30.92C13.5196 32.17 14.3096 33.42 15.5596 33.7Z" fill="white" stroke="#FF6D04" stroke-width="2.0126" stroke-miterlimit="10"/>
<path fill-rule="evenodd" clip-rule="evenodd" d="M15.5596 27.18L25.4496 29.4501C26.6996 29.7101 27.9396 28.9401 28.2296 27.6901C28.5096 26.4401 27.7196 25.2 26.4696 24.91L16.5796 22.67C15.3296 22.39 14.0896 23.1801 13.7996 24.4301C13.5196 25.6501 14.3096 26.9 15.5596 27.18Z" fill="white" stroke="#FF6D04" stroke-width="0.5669" stroke-miterlimit="10"/>
<path fill-rule="evenodd" clip-rule="evenodd" d="M15.5596 20.69L25.4496 22.93C26.6996 23.21 27.9396 22.42 28.2296 21.17C28.5096 19.92 27.7196 18.68 26.4696 18.42L16.5796 16.15C15.3296 15.87 14.0896 16.66 13.7996 17.91C13.5196 19.16 14.3096 20.41 15.5596 20.69Z" fill="white" stroke="#FF6D04" stroke-width="0.5669" stroke-miterlimit="10"/>
<path fill-rule="evenodd" clip-rule="evenodd" d="M15.9004 11.4501H26.1304C26.5804 11.4501 26.9204 11.0801 26.9204 10.6301V5.10006C26.9204 4.65006 26.5804 4.31006 26.1304 4.31006H15.9004C15.4704 4.31006 15.1104 4.65006 15.1104 5.10006V10.6301C15.1104 11.0801 15.4804 11.4501 15.9004 11.4501Z" fill="white" stroke="#FF6D04" stroke-width="0.5669" stroke-miterlimit="10"/>
<path fill-rule="evenodd" clip-rule="evenodd" d="M17.29 4.31003H24.75L24.01 0.280029H18.03L17.29 4.31003Z" fill="white" stroke="#FF6D04" stroke-width="0.5669" stroke-miterlimit="10"/>
<path fill-rule="evenodd" clip-rule="evenodd" d="M19.2996 65.62H22.7296C24.4896 65.62 25.9596 64.17 25.9596 62.39C25.9596 60.63 24.4896 59.19 22.7296 59.19H19.2996C17.5396 59.19 16.0996 60.64 16.0996 62.39C16.0996 64.18 17.5496 65.62 19.2996 65.62Z" fill="white" stroke="#FF6D04" stroke-width="2.0126" stroke-miterlimit="10"/>
<path d="M13.3799 45.52H28.2299" stroke="#FF6D04" stroke-width="2.0126" stroke-miterlimit="10"/>
<path d="M51.1903 38.86C57.2803 38.86 62.2704 33.87 62.2704 27.78C62.2704 21.66 57.2803 16.7 51.1903 16.7C45.1003 16.7 40.1104 21.66 40.1104 27.78C40.1104 33.87 45.1003 38.86 51.1903 38.86Z" stroke="#FF6D04" stroke-width="0.5669" stroke-miterlimit="10"/>
<path d="M51.1905 48.2501C62.4705 48.2501 71.6605 39.0401 71.6605 27.7801C71.6605 16.5001 62.4805 7.31006 51.1905 7.31006C39.9005 7.31006 30.7305 16.5001 30.7305 27.7801C30.7305 39.0301 39.9105 48.2501 51.1905 48.2501Z" stroke="#FF6D04" stroke-width="0.5669" stroke-miterlimit="10"/>
<path d="M51.19 30.98C52.98 30.98 54.42 29.5301 54.42 27.7801C54.42 25.9901 52.97 24.55 51.19 24.55C49.41 24.55 47.96 26.0001 47.96 27.7801C47.96 29.5401 49.41 30.98 51.19 30.98Z" stroke="#FF6D04" stroke-width="0.5669" stroke-miterlimit="10"/>
<path fill-rule="evenodd" clip-rule="evenodd" d="M36.0596 8.73001V10.74L41.9296 12.21C43.3796 12.55 44.5396 11.98 45.6396 12.44C46.5196 12.81 46.4096 12.92 47.1696 12.72C47.9396 12.55 49.5796 11.73 51.2496 11.73H51.2796C52.9496 11.73 54.5996 12.55 55.3596 12.72C56.1296 12.92 56.0096 12.81 56.9196 12.44C57.9996 11.99 59.1596 12.55 60.6096 12.21L66.4796 10.74V8.73001C66.4796 8.73001 63.5896 6.15001 62.4796 5.58001C61.3996 5.04001 61.0596 4.70001 60.0396 4.93001C59.6396 5.02001 58.9896 5.47001 57.9696 5.41001C57.2296 5.35001 56.9796 5.01001 56.3296 4.87001C55.9296 4.78001 55.6796 4.90001 55.0296 4.87001C53.8396 4.81001 53.4396 4.13001 52.7596 3.54001C51.6496 2.58001 50.8896 2.58001 49.7796 3.54001C49.0996 4.14001 48.6996 4.82001 47.5096 4.87001C46.8596 4.90001 46.5996 4.78001 46.2096 4.87001C45.5596 5.01001 45.2996 5.35001 44.5696 5.41001C43.5496 5.47001 42.8996 5.01001 42.4996 4.93001C41.5096 4.70001 41.1696 5.04001 40.0596 5.58001C38.9496 6.15001 36.0596 8.73001 36.0596 8.73001Z" fill="white" stroke="#FF6D04" stroke-width="0.5669" stroke-miterlimit="10"/>
<path fill-rule="evenodd" clip-rule="evenodd" d="M72.5697 34.6701L70.3797 64.2001C70.0697 68.7401 66.6697 72.4801 62.0997 72.4801H22.4797C17.9397 72.4801 14.5097 68.7401 14.1997 64.2001L11.6797 28.6801L72.5697 34.6701Z" fill="white" stroke="#FF6D04" stroke-width="2.0126" stroke-miterlimit="10"/>
<path d="M0.2 26.36L84.25 34.64L84.05 36.62L0 28.35L0.2 26.36Z" fill="#FF6D04"/>
<path d="M26.3604 46.09V63.67" stroke="#FF6D04" stroke-width="0.5669" stroke-miterlimit="10"/>
<path d="M42.1201 46.09V63.67" stroke="#FF6D04" stroke-width="0.5669" stroke-miterlimit="10"/>
<path d="M57.8799 46.09V63.67" stroke="#FF6D04" stroke-width="0.5669" stroke-miterlimit="10"/>
</svg>
