<svg width="97" height="63" viewBox="0 0 97 63" fill="none" xmlns="http://www.w3.org/2000/svg">
<path fill-rule="evenodd" clip-rule="evenodd" d="M16.5698 1.01001H46.3898C54.9198 1.01001 61.9198 8.01001 61.9198 16.57V38.45C61.9198 47.01 54.9198 54.01 46.3898 54.01H16.5698C8.00976 54.01 1.00977 47.01 1.00977 38.45V16.57C1.00977 8.01001 8.00976 1.01001 16.5698 1.01001Z" fill="white" stroke="#FF6D04" stroke-width="2.0126" stroke-miterlimit="10" stroke-linecap="round" stroke-linejoin="round"/>
<path d="M14.4697 1.57001H28.4197V20.48L21.1597 16.94L14.4697 20.48V1.57001Z" stroke="#FF6D04" stroke-width="0.5669" stroke-miterlimit="10"/>
<path d="M46.8398 1.01001V54.01" stroke="#FF6D04" stroke-width="0.5669" stroke-miterlimit="10"/>
<path fill-rule="evenodd" clip-rule="evenodd" d="M75.8096 61.84L79.5496 57.16C82.6096 53.65 85.8096 50.13 88.7296 46.53C89.5796 45.45 90.2596 44.52 91.0796 43.27C102.42 26.32 89.9696 10.81 75.7996 10.76C61.7796 10.7 49.2796 26.35 60.3396 43.07C63.0296 47.15 68.7896 53.76 71.8796 56.96C73.2296 58.35 74.9596 61.04 75.8096 61.84Z" fill="white" stroke="#FF6D04" stroke-width="2.0126" stroke-miterlimit="10" stroke-linecap="round" stroke-linejoin="round"/>
<path d="M75.8094 38.06C80.4594 38.06 84.2294 34.29 84.2294 29.64C84.2294 24.99 80.4594 21.19 75.8094 21.19C71.1594 21.19 67.3594 24.99 67.3594 29.64C67.3594 34.29 71.1594 38.06 75.8094 38.06Z" stroke="#FF6D04" stroke-width="0.5669" stroke-miterlimit="10"/>
<path fill-rule="evenodd" clip-rule="evenodd" d="M49.9598 61.84L52.5098 58.61C54.6398 56.17 56.8498 53.76 58.8598 51.3C59.4598 50.53 59.9098 49.88 60.4798 49.03C68.2998 37.35 59.7098 26.64 49.9598 26.61C40.2698 26.55 31.6498 37.35 39.2698 48.92C41.1098 51.7 45.0798 56.26 47.2398 58.47C48.1498 59.43 49.3698 61.3 49.9598 61.84Z" fill="white" stroke="#FF6D04" stroke-width="2.0126" stroke-miterlimit="10" stroke-linecap="round" stroke-linejoin="round"/>
<path d="M49.9301 45.43C53.1301 45.43 55.7701 42.82 55.7701 39.62C55.7701 36.42 53.1301 33.81 49.9301 33.81C46.7301 33.81 44.1201 36.42 44.1201 39.62C44.1201 42.82 46.7301 45.43 49.9301 45.43Z" stroke="#FF6D04" stroke-width="0.5669" stroke-miterlimit="10"/>
</svg>
