<svg width="93" height="78" viewBox="0 0 93 78" fill="none" xmlns="http://www.w3.org/2000/svg">
<path d="M15.01 23.26H13V31.51H15.01V23.26Z" fill="#FF6D04"/>
<path d="M62.4595 23.34H60.4795V34.85H62.4595V23.34Z" fill="#FF6D04"/>
<path d="M58.9698 5.49001C63.8998 9.43001 68.7798 14.31 73.4798 18.61L61.5498 31.37V35.91V57.45C61.5498 67.17 62.7098 65.98 55.5098 65.98H18.9098C14.7398 65.98 14.0098 66.46 14.0098 63.51L13.9898 31L1.00977 19.12L17.3098 4.52001L29.1898 1.01001C30.3498 1.44001 30.0398 2.68001 30.4698 4.16001C31.4298 7.45001 33.8098 9.74001 37.7798 9.74001C45.7998 9.68001 44.3598 2.09001 46.2298 1.04001H47.3598L58.9698 5.49001Z" stroke="#FF6D04" stroke-width="2.0126" stroke-miterlimit="10" stroke-linejoin="round"/>
<path d="M64.7598 33.86C53.0198 35.76 46.0798 43.92 44.4598 55.91C40.5998 58.21 32.1898 62.8 30.1698 66.43C26.8798 72.33 38.3898 75.61 41.8498 68.05C41.9098 67.91 41.9898 67.71 42.0798 67.57L42.4498 66.92C55.4898 70.12 61.5298 83.96 79.0498 69.67C83.2498 66.24 78.5098 68.31 89.5098 67.66C91.3498 67.57 91.8098 67.55 91.8298 65.62C91.8898 60.09 92.1998 54.51 90.5498 49.55C88.5398 43.54 83.5498 38.3 78.2798 35.89C77.3198 35.44 76.2998 35.04 75.2498 34.7C74.8498 34.59 73.3498 34.25 72.4398 33.99C72.0698 33.9 71.7898 33.79 71.7598 33.76C71.9898 30.54 64.7598 30 64.7598 33.86Z" fill="white" stroke="#FF6D04" stroke-width="2.0126" stroke-miterlimit="10" stroke-linejoin="round"/>
<path d="M44.2598 56.31C44.2598 56.31 52.2298 54.84 62.6898 59.2C73.1198 63.57 75.8098 66.54 82.0198 67.34" stroke="#FF6D04" stroke-width="0.5669" stroke-miterlimit="10"/>
<path d="M66.3398 34.14C66.3398 34.14 62.8298 39.7 61.4598 47.21C60.0898 54.72 60.3498 58.12 60.3498 58.12" stroke="#FF6D04" stroke-width="0.5669" stroke-miterlimit="10"/>
<path d="M70.8193 33.94C70.8193 33.94 74.4793 41.05 75.5293 50.32C76.5793 59.59 76.3493 65.91 76.3493 65.91" stroke="#FF6D04" stroke-width="0.5669" stroke-miterlimit="10"/>
<path d="M28.8096 67.39C29.6296 66.62 31.1096 65.72 32.6696 65.07L33.4396 66.91C32.0796 67.45 30.8596 68.21 30.1796 68.87L28.8096 67.39ZM32.6696 65.07C33.9996 64.5 35.4196 64.13 36.6696 64.16L36.6396 66.14C35.6996 66.11 34.5396 66.42 33.4396 66.91L32.6696 65.07ZM36.6696 64.16C38.0296 64.19 39.5896 64.59 41.0896 65.1L40.4696 66.97C39.1096 66.52 37.7496 66.18 36.6396 66.15L36.6696 64.16ZM41.0896 65.1C42.5396 65.58 43.9496 66.18 44.9996 66.63L44.2096 68.47C43.2196 68.04 41.8896 67.45 40.4696 66.97L41.0896 65.1Z" fill="#FF6D04"/>
<path d="M63.5996 33.07C64.6796 32.9 66.2396 32.64 68.0196 32.62L68.0796 34.6C66.4096 34.66 64.9296 34.86 63.9096 35.03L63.5996 33.07ZM68.0196 32.61C69.8596 32.58 71.9596 32.75 74.0596 33.38L73.4896 35.28C71.6196 34.71 69.7196 34.57 68.0796 34.6L68.0196 32.61Z" fill="#FF6D04"/>
<path d="M49.3701 22.83C53.2301 22.83 56.3701 21.21 56.3701 19.23C56.3701 17.22 53.2201 15.6 49.3701 15.6C45.5201 15.6 42.3701 17.22 42.3701 19.23C42.3601 21.22 45.5101 22.83 49.3701 22.83Z" stroke="#FF6D04" stroke-width="0.5669" stroke-miterlimit="10"/>
</svg>
