<svg width="83" height="67" viewBox="0 0 83 67" fill="none" xmlns="http://www.w3.org/2000/svg">
<path d="M9.25 10.36H1V5.68C1 3.13 3.13 1 5.68 1H13.7" stroke="#FF6D04" stroke-width="2.0126" stroke-miterlimit="10"/>
<path d="M52.0296 65.32H17.8396C17.8396 65.32 9.35957 65.72 9.35957 56.84C9.35957 49.67 9.35957 21.55 9.35957 11.23C9.35957 6.21 8.90957 4.4 6.77957 1.88C6.66957 1.74 7.20957 1.48 7.03957 1.43C6.32957 1.23 7.23957 1 8.16957 1H41.0196C41.0196 1 52.0196 1.4 52.0196 11.63C52.0196 13.61 52.0196 16.34 52.0196 20.25" stroke="#FF6D04" stroke-width="2.0126" stroke-miterlimit="10"/>
<path d="M59.7397 65.32H21.9297V65.01C24.5397 64.22 26.4097 60.9 26.4097 58.92C26.4097 56.96 26.1497 56.85 25.6997 55.97H42.2797" stroke="#FF6D04" stroke-width="2.0126" stroke-miterlimit="10"/>
<path d="M15.4297 14.19H44.9097" stroke="#FF6D04" stroke-width="0.5669" stroke-miterlimit="10"/>
<path d="M15.4297 20.68H44.9097" stroke="#FF6D04" stroke-width="0.5669" stroke-miterlimit="10"/>
<path d="M15.4297 27.17H44.9097" stroke="#FF6D04" stroke-width="0.5669" stroke-miterlimit="10"/>
<path d="M15.4297 33.66H40.7797" stroke="#FF6D04" stroke-width="0.5669" stroke-miterlimit="10"/>
<path d="M15.4297 40.15H38.7597" stroke="#FF6D04" stroke-width="0.5669" stroke-miterlimit="10"/>
<path fill-rule="evenodd" clip-rule="evenodd" d="M60.1095 65.32C72.0195 65.32 81.7395 55.6 81.7395 43.69C81.7395 31.76 72.0195 22.06 60.1095 22.06C48.1995 22.06 38.4795 31.76 38.4795 43.7C38.4795 55.6 48.1995 65.32 60.1095 65.32Z" fill="white" stroke="#FF6D04" stroke-width="2.0126" stroke-miterlimit="10"/>
<path d="M60.11 52.6C65.01 52.6 69.01 48.6 69.01 43.7C69.01 38.8 65.01 34.77 60.11 34.77C55.21 34.77 51.21 38.8 51.21 43.7C51.21 48.6 55.2 52.6 60.11 52.6Z" stroke="#FF6D04" stroke-width="0.5669" stroke-miterlimit="10"/>
<path d="M60.11 47.1C61.98 47.1 63.51 45.57 63.51 43.7C63.51 41.83 61.98 40.3 60.11 40.3C58.24 40.3 56.71 41.83 56.71 43.7C56.71 45.57 58.24 47.1 60.11 47.1Z" stroke="#FF6D04" stroke-width="0.5669" stroke-miterlimit="10"/>
<path fill-rule="evenodd" clip-rule="evenodd" d="M44.1201 23.54V25.69L50.3301 27.25C51.8301 27.62 53.0801 26.99 54.2401 27.48C55.1501 27.88 55.0601 27.99 55.8601 27.79C56.6801 27.59 58.4101 26.74 60.2001 26.74C61.9901 26.74 63.7101 27.59 64.5401 27.79C65.3301 27.99 65.2201 27.88 66.1601 27.48C67.3201 27 68.5701 27.62 70.0701 27.25L76.2801 25.69V23.54C76.2801 23.54 73.2201 20.82 72.0601 20.25C70.9001 19.65 70.5301 19.29 69.4801 19.54C69.0801 19.63 68.3701 20.11 67.3001 20.05C66.5301 19.99 66.2501 19.62 65.5401 19.48C65.1401 19.39 64.8601 19.51 64.1501 19.48C62.9001 19.42 62.5101 18.71 61.8001 18.09C60.6101 17.07 59.7901 17.07 58.6301 18.09C57.9201 18.71 57.5201 19.42 56.2501 19.48C55.5701 19.51 55.2901 19.39 54.8601 19.48C54.1801 19.62 53.9001 19.99 53.1301 20.05C52.0501 20.11 51.3401 19.62 50.9501 19.54C49.8701 19.28 49.5301 19.65 48.3701 20.25C47.1801 20.82 44.1201 23.54 44.1201 23.54Z" fill="white" stroke="#FF6D04" stroke-width="0.5669" stroke-miterlimit="10"/>
</svg>
