<svg width="24" height="24" viewBox="0 0 24 24" fill="none" xmlns="http://www.w3.org/2000/svg">
<path fill-rule="evenodd" clip-rule="evenodd" d="M11 2C16.514 2 21 6.486 21 12C21 17.514 16.514 22 11 22C5.486 22 1 17.514 1 12C1 6.486 5.486 2 11 2ZM11 3.5C6.313 3.5 2.5 7.313 2.5 12C2.5 16.687 6.313 20.5 11 20.5C15.687 20.5 19.5 16.687 19.5 12C19.5 7.313 15.687 3.5 11 3.5ZM10.6612 7.0954C11.0762 7.0954 11.4112 7.4314 11.4112 7.8454V12.2674L14.8162 14.2974C15.1712 14.5104 15.2882 14.9704 15.0762 15.3264C14.9352 15.5614 14.6862 15.6924 14.4312 15.6924C14.3002 15.6924 14.1682 15.6584 14.0472 15.5874L10.2772 13.3384C10.0512 13.2024 9.9112 12.9574 9.9112 12.6934V7.8454C9.9112 7.4314 10.2472 7.0954 10.6612 7.0954Z" fill="#FF6D04"/>
</svg>
