<svg width="18" height="18" viewBox="0 0 18 18" fill="none" xmlns="http://www.w3.org/2000/svg">
<path fill-rule="evenodd" clip-rule="evenodd" d="M12.9005 0C14.351 0 15.6022 0.484414 16.5178 1.40182C17.4749 2.35983 17.9999 3.75353 17.9981 5.32675L17.9994 11.638C18.001 11.6623 18.0013 11.6867 18.0003 11.711L17.9981 12.6742C17.9981 15.8594 15.9477 18 12.896 18H5.09665C2.04764 18 -0.000976562 15.8594 -0.000976562 12.6742V5.32585C-0.000976562 2.14062 2.04764 0 5.09665 0H12.9005ZM13.15 9.77154C12.6196 9.77154 11.9972 10.6493 11.446 11.4241C10.6901 12.4886 9.90795 13.59 8.72984 13.59C7.93331 13.59 7.20353 13.2833 6.56035 13.0118C5.5374 12.5806 5.07373 12.4426 4.61999 12.816C3.71169 13.5645 2.8142 14.9275 2.40181 15.5982C3.05271 16.2693 3.97732 16.6469 5.09665 16.6469H12.896C15.1737 16.6469 16.645 15.0881 16.645 12.6742L16.645 11.9534L16.6242 11.9315C15.8345 11.1179 14.4709 9.77154 13.15 9.77154ZM12.9005 1.35311H5.09665C2.82252 1.35311 1.35214 2.9128 1.35214 5.32585V12.6742C1.35214 13.2773 1.44392 13.827 1.61709 14.3124C2.13911 13.5242 2.92751 12.4571 3.76031 11.7714C4.88971 10.8423 6.10571 11.3529 7.08536 11.7651C7.66179 12.0078 8.20664 12.2369 8.72984 12.2369C9.20975 12.2369 9.81143 11.389 10.3437 10.6411C11.0825 9.59835 11.9214 8.41843 13.15 8.41843C14.4984 8.41843 15.7196 9.24704 16.646 10.0694L16.645 5.32585C16.6468 4.09632 16.2715 3.06976 15.5607 2.35802C14.904 1.70041 13.9848 1.35311 12.9005 1.35311ZM6.18455 3.77924C7.47542 3.78014 8.52543 4.83016 8.52634 6.12013C8.52634 7.411 7.47632 8.46191 6.18455 8.46191C4.89278 8.46191 3.84276 7.4119 3.84276 6.12103C3.84276 4.82926 4.89278 3.77924 6.18455 3.77924ZM6.18365 5.13235C5.63879 5.13235 5.19588 5.57527 5.19588 6.12103C5.19588 6.66588 5.63879 7.1088 6.18455 7.1088C6.7294 7.1088 7.17322 6.66588 7.17322 6.12193C7.17232 5.57618 6.7285 5.13326 6.18365 5.13235Z" fill="#FF6D04"/>
</svg>
