<svg width="16" height="18" viewBox="0 0 16 18" fill="none" xmlns="http://www.w3.org/2000/svg">
<path fill-rule="evenodd" clip-rule="evenodd" d="M10.2195 0C10.2584 0 10.2967 0.00328987 10.3339 0.00960702L10.4563 0.0103295C10.6412 0.0103295 10.8178 0.0855356 10.9465 0.218732L15.5368 5.00021C15.6573 5.12616 15.7254 5.2956 15.7254 5.47048V13.7975C15.7398 16.0709 13.9674 17.9185 11.6904 18H4.31478C2.10369 17.9525 0.330394 16.1657 0.275722 13.9771L0.275391 4.06874C0.32885 1.82071 2.18454 0.0103295 4.41535 0.0103295L10.105 0.00960702C10.1422 0.00328987 10.1805 0 10.2195 0ZM9.53934 1.36911L4.41807 1.36948C2.91667 1.36948 1.66988 2.58546 1.63454 4.08505V13.7975C1.60192 15.3388 2.81609 16.6073 4.34286 16.6409H11.6669C13.1791 16.5865 14.3761 15.3388 14.3662 13.802L14.3661 6.32728L12.5463 6.32819C10.8872 6.32366 9.53988 4.97176 9.53988 3.31541L9.53934 1.36911ZM7.6523 6.48667C8.02742 6.48667 8.33187 6.79111 8.33187 7.16624L8.33151 10.9919L9.29415 10.0259C9.55873 9.75949 9.98912 9.75949 10.2555 10.0241C10.521 10.2887 10.5219 10.719 10.2573 10.9854L8.15607 13.0959C8.10278 13.1548 8.03933 13.2043 7.96849 13.2416C7.96218 13.2435 7.95645 13.2464 7.95069 13.2493C7.92433 13.2636 7.89647 13.275 7.86775 13.2846C7.86494 13.2843 7.8622 13.2852 7.85945 13.2861C7.79421 13.3083 7.72457 13.3195 7.6523 13.3195C7.58205 13.3195 7.51427 13.3089 7.45051 13.2891C7.4405 13.2853 7.42982 13.2817 7.41924 13.2778C7.39945 13.2712 7.38048 13.2633 7.36198 13.2545C7.35092 13.2488 7.34003 13.2433 7.32928 13.2375C7.3078 13.2263 7.28675 13.2134 7.2665 13.1994C7.25958 13.1944 7.25272 13.1894 7.24595 13.1844C7.21677 13.1628 7.18946 13.1387 7.16421 13.1127L5.04545 10.9854C4.78087 10.719 4.78178 10.2887 5.04727 10.0241C5.31366 9.75949 5.74405 9.75949 6.00864 10.0259L6.97236 10.9937L6.97272 7.16624C6.97272 6.79111 7.27717 6.48667 7.6523 6.48667ZM10.8985 2.13114L10.899 3.31541C10.899 4.22514 11.6384 4.96632 12.5481 4.96904L13.6213 4.96814L10.8985 2.13114Z" fill="#FF7614"/>
</svg>
